<?xml version="1.0" encoding="UTF-8"?>
<svg width="512px" height="512px" viewBox="0 0 512 512" version="1.1" xmlns="http://www.w3.org/2000/svg" xmlns:xlink="http://www.w3.org/1999/xlink">
    <!-- Generator: Sketch 52.3 (67297) - http://www.bohemiancoding.com/sketch -->
    <title>Slice 1</title>
    <desc>Created with Sketch.</desc>
    <g id="Page-1" stroke="none" stroke-width="1" fill="none" fill-rule="evenodd">
        <g id="logo" fill="#FFFFFF" fill-rule="nonzero">
            <path d="M256,0 C114.844,0 0,114.844 0,256 C0,397.156 114.844,512 256,512 C397.156,512 512,397.156 512,256 C512,114.844 397.156,0 256,0 Z M332.802,103.771 L256,180.583 L179.198,103.77 C226.906,79.583 285.094,79.583 332.802,103.771 Z M85.333,256 C85.333,229.344 91.677,203.052 103.771,179.198 L180.583,256 L103.77,332.802 C91.677,308.948 85.333,282.656 85.333,256 Z M179.198,408.229 L256,331.417 L332.802,408.23 C285.094,432.417 226.906,432.417 179.198,408.229 Z M408.229,332.802 L331.417,256 L408.23,179.198 C420.324,203.052 426.668,229.344 426.668,256 C426.668,282.656 420.323,308.948 408.229,332.802 Z" id="Shape"></path>
        </g>
    </g>
</svg>